<svg xmlns="http://www.w3.org/2000/svg" viewBox="0 0 1200 800">
  <rect width="1200" height="800" fill="#E70013"/>
  <rect width="400" height="800" fill="#FFFFFF"/>
  <circle cx="800" cy="400" r="200" fill="#FFFFFF"/>
  <circle cx="830" cy="400" r="170" fill="#E70013"/>
  <circle cx="810" cy="400" r="150" fill="#FFFFFF"/>
  <circle cx="820" cy="400" r="130" fill="#E70013"/>
  <g transform="translate(820,380) rotate(0)">
    <polygon points="0,-80 18.6,-24.7 76,-24.7 30,-10.6 48.8,45.3 0,14.6 -48.8,45.3 -30,-10.6 -76,-24.7 -18.6,-24.7" fill="#FFFFFF"/>
  </g>
  <g transform="translate(860,340) rotate(0)">
    <polygon points="0,-25 5.8,-7.8 24,-7.8 9.5,-3.4 15.2,14.2 0,4.5 -15.2,14.2 -9.5,-3.4 -24,-7.8 -5.8,-7.8" fill="#FFFFFF"/>
  </g>
  <g transform="translate(860,430) rotate(0)">
    <polygon points="0,-25 5.8,-7.8 24,-7.8 9.5,-3.4 15.2,14.2 0,4.5 -15.2,14.2 -9.5,-3.4 -24,-7.8 -5.8,-7.8" fill="#FFFFFF"/>
  </g>
  <g transform="translate(780,340) rotate(0)">
    <polygon points="0,-25 5.8,-7.8 24,-7.8 9.5,-3.4 15.2,14.2 0,4.5 -15.2,14.2 -9.5,-3.4 -24,-7.8 -5.8,-7.8" fill="#FFFFFF"/>
  </g>
  <g transform="translate(780,430) rotate(0)">
    <polygon points="0,-25 5.8,-7.8 24,-7.8 9.5,-3.4 15.2,14.2 0,4.5 -15.2,14.2 -9.5,-3.4 -24,-7.8 -5.8,-7.8" fill="#FFFFFF"/>
  </g>
</svg>
